# xmcd
#
# Track frame offsets: 
#        150
#        17860
#        35724
#        47785
#        63110
#        78690
#        92070
#        107431
#        121796
#        137570
#        153107
#        168313
#        180412
#
# Disc length: 2599 seconds
#
# Revision: 0
# Processed by: cddbd v1.5.2PL0 Copyright (c) Steve Scherf et al.
# Submitted via: ExactAudioCopy v0.99pb4
#
DISCID=9b0a250d
DTITLE=Ina Müller - Liebe macht taub
DYEAR=2008
DGENRE=Folk/Rock
TTITLE0=11 - Drei Männer her - Album Version
TTITLE1=12 - Wenn Du fliegst
TTITLE2=13 - Smaltalk
TTITLE3=14 - Der Grund
TTITLE4=15 - Maxi Cosi
TTITLE5=16 - Ich will wieder leben
TTITLE6=17 - Mark
TTITLE7=18 - Liebe macht taub
TTITLE8=19 - Wir sanieren unsere Beziehung
TTITLE9=20 - Du schweigst
TTITLE10=21 - Mein Herz
TTITLE11=22 - Zurück in Muttis Bauch
TTITLE12=23 - Mr. Big
EXTD=
EXTT0=
EXTT1=
EXTT2=
EXTT3=
EXTT4=
EXTT5=
EXTT6=
EXTT7=
EXTT8=
EXTT9=
EXTT10=
EXTT11=
EXTT12=
PLAYORDER=
